<svg width="152" height="52" viewBox="0 0 152 52" fill="none" xmlns="http://www.w3.org/2000/svg" role="img" aria-labelledby="title desc">
  <title id="title">Peggy Beauty logo placeholder</title>
  <desc id="desc">Gold monogram and wordmark placeholder for Peggy Beauty salon.</desc>
  <rect width="152" height="52" fill="#0A0A0A"/>
  <circle cx="26" cy="26" r="17" stroke="#C9A96E" stroke-width="2"/>
  <path d="M19 35V16H28.5C32.5 16 35 18.4 35 22C35 25.7 32.4 28 28.4 28H23.4V35H19ZM23.4 24.5H28C29.7 24.5 30.8 23.5 30.8 22C30.8 20.5 29.7 19.5 28 19.5H23.4V24.5Z" fill="#C9A96E"/>
  <path d="M53 22.2C53 18.7 55.8 16 59.7 16H70V19.8H60.1C58.3 19.8 57.2 20.8 57.2 22.3C57.2 23.9 58.3 24.8 60.1 24.8H66.2C70.2 24.8 72.8 27.2 72.8 30.6C72.8 34.2 70.1 36.8 66 36.8H53.7V33H65.7C67.6 33 68.6 32 68.6 30.6C68.6 29.1 67.6 28.2 65.7 28.2H59.8C55.8 28.2 53 25.8 53 22.2Z" fill="#FAF7F2"/>
  <path d="M79.1 36.8V16H84.1L90.4 27.1L96.6 16H101.7V36.8H97.5V22.8L91.9 32.5H88.9L83.3 22.8V36.8H79.1Z" fill="#FAF7F2"/>
  <path d="M108.6 36.8V16H122.9V19.8H112.8V24.3H121.8V28H112.8V33H123.2V36.8H108.6Z" fill="#FAF7F2"/>
  <path d="M129.5 36.8V16H133.7V33H143.4V36.8H129.5Z" fill="#FAF7F2"/>
</svg>
